HIERARCHY
ROOT Hips
{
	OFFSET 0.000000 0.000000 0.000000
	CHANNELS 6 Xposition Yposition Zposition Zrotation Xrotation Yrotation
	JOINT Spine
	{
		OFFSET 0.000000 7.322665 -0.000001
		CHANNELS 3 Zrotation Xrotation Yrotation
		JOINT Spine1
		{
			OFFSET 0.000000 17.707638 -0.000002
			CHANNELS 3 Zrotation Xrotation Yrotation
			JOINT Neck
			{
				OFFSET 0.000000 19.493652 -0.000002
				CHANNELS 3 Zrotation Xrotation Yrotation
				JOINT Head
				{
					OFFSET 0.000000 13.841621 1.786014
					CHANNELS 3 Zrotation Xrotation Yrotation
					End Site
					{
						OFFSET 0.000000 17.860161 -0.000002
					}
				}
			}
			JOINT LeftShoulder
			{
				OFFSET 3.552432 16.070168 -0.180037
				CHANNELS 3 Zrotation Xrotation Yrotation
				JOINT LeftArm
				{
					OFFSET 10.355261 0.000000 0.000000
					CHANNELS 3 Zrotation Xrotation Yrotation
					JOINT LeftForeArm
					{
						OFFSET 27.312889 0.000000 0.000000
						CHANNELS 3 Zrotation Xrotation Yrotation
						JOINT LeftHand
						{
							OFFSET 21.407238 0.000000 0.000000
							CHANNELS 3 Zrotation Xrotation Yrotation
							End Site
							{
								OFFSET 13.395115 0.000000 0.000000
							}
						}
					}
				}
			}
			JOINT RightShoulder
			{
				OFFSET -3.589735 16.070168 -0.180037
				CHANNELS 3 Zrotation Xrotation Yrotation
				JOINT RightArm
				{
					OFFSET -10.355261 0.000000 0.000000
					CHANNELS 3 Zrotation Xrotation Yrotation
					JOINT RightForeArm
					{
						OFFSET -27.312885 0.000000 0.000000
						CHANNELS 3 Zrotation Xrotation Yrotation
						JOINT RightHand
						{
							OFFSET -21.407238 0.000000 0.000000
							CHANNELS 3 Zrotation Xrotation Yrotation
							End Site
							{
								OFFSET -13.395123 0.000000 0.000000
							}
						}
					}
				}
			}
		}
	}
	JOINT LeftUpLeg
	{
		OFFSET 8.930079 0.000000 0.000000
		CHANNELS 3 Zrotation Xrotation Yrotation
		JOINT LeftLeg
		{
			OFFSET 0.000000 -43.123249 0.000005
			CHANNELS 3 Zrotation Xrotation Yrotation
			JOINT LeftFoot
			{
				OFFSET 0.000000 -33.635326 0.000004
				CHANNELS 3 Zrotation Xrotation Yrotation
				JOINT LeftToeBase
				{
					OFFSET 0.000000 -5.804550 13.395120
					CHANNELS 3 Zrotation Xrotation Yrotation
					End Site
					{
						OFFSET 0.000000 0.000000 3.572030
					}
				}
			}
		}
	}
	JOINT RightUpLeg
	{
		OFFSET -8.930079 0.000000 0.000000
		CHANNELS 3 Zrotation Xrotation Yrotation
		JOINT RightLeg
		{
			OFFSET 0.000000 -43.123249 0.000005
			CHANNELS 3 Zrotation Xrotation Yrotation
			JOINT RightFoot
			{
				OFFSET 0.000000 -33.635326 0.000004
				CHANNELS 3 Zrotation Xrotation Yrotation
				JOINT RightToeBase
				{
					OFFSET 0.000000 -5.804550 13.395120
					CHANNELS 3 Zrotation Xrotation Yrotation
					End Site
					{
						OFFSET 0.000000 0.000000 3.572030
					}
				}
			}
		}
	}
}
MOTION
Frames: 13
Frame Time: 0.008333
0.002507 0.003568 -0.014255 3.212445 -15.134215 4.860882 -9.727379 17.942822 2.938506 4.462051 -2.594289 -0.522986 7.306249 4.495864 -4.574066 4.848265 7.799803 -1.313109 -8.689554 2.473083 1.081129 -72.214805 -4.548299 -3.308749 -0.588627 -1.828320 -17.849646 -13.180307 36.634826 22.694922 8.809088 -0.971577 -14.840855 52.463404 33.188029 46.590677 -42.866144 -27.800217 116.679111 42.473149 44.647512 -39.221511 -2.359664 14.514611 -4.739830 -0.002274 10.524335 0.000051 2.290121 -7.444745 -0.410331 -0.000002 0.850061 -0.000014 -11.035450 28.548285 -3.637281 -0.000575 -10.548075 -0.000144 -0.396931 -0.243672 9.467256 0.000007 -11.645636 0.000004
0.000697 -0.005739 -0.011182 3.206182 -15.114215 4.863090 -9.720758 17.923776 2.931633 4.458780 -2.591061 -0.522942 7.304618 4.490258 -4.569799 4.843766 7.804123 -1.312432 -8.680761 2.469884 1.082571 -72.223015 -4.569300 -3.309986 -0.579887 -1.802323 -17.838702 -13.245482 36.650648 22.787982 8.811881 -0.974575 -14.840364 52.421821 33.214626 46.620177 -42.826597 -27.816611 116.723439 42.467439 44.625540 -39.268236 -2.351018 14.490683 -4.716334 -0.002199 10.539142 0.000045 2.278826 -7.469345 -0.420480 -0.000000 0.910182 -0.000014 -11.022315 28.519781 -3.637976 -0.000555 -10.529105 -0.000141 -0.379603 -0.253185 9.454076 0.000010 -11.674655 0.000008
0.000000 0.000000 0.000000 3.214039 -15.139681 4.859032 -9.734555 17.947738 2.929586 4.464803 -2.581421 -0.512812 7.296919 4.487641 -4.563012 4.856100 7.803452 -1.314486 -8.703536 2.460900 1.079898 -72.192770 -4.561251 -3.299357 -0.579819 -1.801624 -17.843922 -13.324652 36.674725 22.884489 8.811032 -0.988466 -14.854162 52.379481 33.276169 46.640039 -42.938514 -27.880130 116.681583 42.351319 44.643076 -39.227884 -2.354825 14.543378 -4.721791 -0.002268 10.498544 0.000049 2.254786 -7.460699 -0.418268 -0.000000 0.891652 -0.000013 -11.037854 28.565533 -3.606250 -0.000539 -10.551009 -0.000131 -0.389008 -0.253279 9.441732 0.000011 -11.600020 0.000007
0.000165 0.009332 0.009247 3.213712 -15.163244 4.856489 -9.738689 17.980826 2.927796 4.471949 -2.589569 -0.504716 7.297664 4.490641 -4.572547 4.861431 7.795323 -1.314963 -8.719079 2.468984 1.086532 -72.179916 -4.533332 -3.311310 -0.594307 -1.847189 -17.839062 -13.401961 36.715190 23.007383 8.796202 -0.982805 -14.875546 52.358967 33.335701 46.654802 -43.036452 -27.921670 116.634291 42.081492 44.740529 -39.242039 -2.357910 14.586163 -4.767452 -0.002148 10.475452 0.000044 2.262582 -7.452431 -0.373928 -0.000001 0.842517 -0.000013 -11.044629 28.611005 -3.617167 -0.000530 -10.571127 -0.000134 -0.402709 -0.254030 9.470360 0.000007 -11.543820 -0.000002
0.000599 0.008363 0.011033 3.211816 -15.141215 4.855311 -9.733128 17.969610 2.932278 4.465426 -2.600812 -0.509965 7.294629 4.479796 -4.590149 4.857003 7.815235 -1.315650 -8.717382 2.480133 1.082329 -72.181678 -4.534089 -3.316235 -0.591254 -1.836765 -17.847959 -13.514825 36.732925 23.128720 8.803240 -0.971880 -14.875756 52.339494 33.330644 46.658310 -42.926325 -27.918122 116.720174 41.885647 44.846855 -39.020475 -2.361791 14.556038 -4.756151 -0.002184 10.496555 0.000050 2.279970 -7.457697 -0.374956 0.000001 0.824585 -0.000014 -11.041028 28.584314 -3.645691 -0.000502 -10.560694 -0.000126 -0.399079 -0.260454 9.493289 0.000010 -11.557694 0.000009
-0.001660 -0.000441 0.011003 3.211797 -15.105380 4.847910 -9.734121 17.942010 2.944825 4.458264 -2.611982 -0.522377 7.286497 4.469651 -4.596113 4.843733 7.840197 -1.313938 -8.702080 2.490582 1.081692 -72.189915 -4.539100 -3.300325 -0.571860 -1.771541 -17.893448 -13.458966 36.736821 23.091066 8.824416 -0.964159 -14.871239 52.324030 33.290496 46.654819 -42.607529 -27.834185 116.913796 42.050162 44.860058 -39.074689 -2.362722 14.507066 -4.724618 -0.002197 10.529487 0.000050 2.275058 -7.471366 -0.398535 -0.000002 0.867675 -0.000013 -11.042186 28.529174 -3.609644 -0.000558 -10.530621 -0.000141 -0.376583 -0.275300 9.450046 0.000008 -11.600663 0.000003
-0.003137 -0.005966 0.016672 3.210028 -15.099912 4.847156 -9.732109 17.948661 2.947559 4.453151 -2.622442 -0.526262 7.288413 4.469810 -4.579491 4.840555 7.831056 -1.311784 -8.686740 2.500123 1.093066 -72.205720 -4.534287 -3.303279 -0.557064 -1.723474 -17.915503 -13.344765 36.819658 22.925019 8.830081 -0.957781 -14.886604 52.295125 33.295038 46.678182 -42.396115 -27.783126 117.046315 42.186069 44.841350 -39.164411 -2.358540 14.506089 -4.709345 -0.002212 10.530480 0.000046 2.259686 -7.486119 -0.405673 -0.000001 0.896186 -0.000015 -11.039027 28.524441 -3.585580 -0.000536 -10.526694 -0.000135 -0.378900 -0.280197 9.425903 0.000012 -11.626535 0.000011
-0.002961 -0.001135 0.025501 3.213158 -15.120849 4.851156 -9.738883 17.988109 2.943326 4.459441 -2.641580 -0.518415 7.294554 4.476403 -4.566260 4.850145 7.812307 -1.312798 -8.692176 2.519372 1.098990 -72.203658 -4.519810 -3.315932 -0.575140 -1.778596 -17.922169 -13.505989 36.942851 23.023415 8.821840 -0.941907 -14.905860 52.211223 33.389745 46.751094 -42.523453 -27.863589 117.004501 41.696987 44.730909 -38.468182 -2.363898 14.539425 -4.707931 -0.002296 10.516696 0.000047 2.294166 -7.481075 -0.394219 -0.000001 0.876518 -0.000014 -11.044056 28.561677 -3.584028 -0.000506 -10.537390 -0.000128 -0.402569 -0.286420 9.434877 0.000011 -11.589023 0.000010
-0.001651 0.007431 0.031741 3.214137 -15.126955 4.849894 -9.736337 18.004493 2.939841 4.456513 -2.651816 -0.512120 7.287107 4.478285 -4.581310 4.848595 7.822570 -1.312138 -8.712769 2.530353 1.090946 -72.185810 -4.520518 -3.331444 -0.602514 -1.866887 -17.890340 -13.694945 36.967313 23.181611 8.824968 -0.931741 -14.909369 52.145438 33.459516 46.784709 -42.742812 -27.981123 116.916241 41.394508 44.779154 -37.892974 -2.364350 14.563225 -4.716546 -0.002237 10.488409 0.000047 2.305006 -7.469686 -0.391614 -0.000002 0.844813 -0.000014 -11.048896 28.578760 -3.592690 -0.000545 -10.545407 -0.000138 -0.414665 -0.287138 9.445143 0.000012 -11.557953 0.000010
-0.002904 0.006935 0.035962 3.211448 -15.122708 4.846656 -9.733507 17.991521 2.932649 4.455929 -2.638078 -0.507321 7.284546 4.496165 -4.581972 4.839990 7.816470 -1.309648 -8.719443 2.518807 1.064792 -72.176371 -4.546658 -3.304758 -0.579804 -1.794039 -17.913580 -13.556887 36.891894 23.123631 8.844544 -0.943409 -14.881464 52.100324 33.463648 46.775977 -42.784486 -28.035278 116.923618 41.452486 44.776702 -37.827066 -2.359880 14.563987 -4.719343 -0.002184 10.488661 0.000048 2.285624 -7.477036 -0.392456 -0.000001 0.848655 -0.000013 -11.045793 28.575637 -3.599438 -0.000551 -10.541353 -0.000141 -0.404934 -0.290752 9.452967 0.000011 -11.558645 0.000014
-0.004640 -0.003097 0.037222 3.206904 -15.099378 4.844950 -9.731076 17.971303 2.929906 4.453946 -2.638222 -0.508062 7.274702 4.500155 -4.582344 4.834022 7.816051 -1.308211 -8.704408 2.520195 1.050284 -72.188495 -4.554096 -3.281753 -0.579559 -1.789850 -17.946136 -13.740435 36.900295 23.276369 8.853608 -0.943054 -14.872967 52.086234 33.443868 46.778371 -42.645632 -28.006941 117.014651 42.103649 44.644951 -38.636423 -2.352555 14.533709 -4.703209 -0.002285 10.507105 0.000048 2.266422 -7.494340 -0.414664 -0.000001 0.887449 -0.000014 -11.038686 28.538267 -3.587272 -0.000499 -10.515350 -0.000126 -0.385229 -0.306791 9.435004 0.000013 -11.578421 0.000012
-0.005035 -0.007407 0.041565 3.208228 -15.089601 4.843917 -9.729521 17.977133 2.932946 4.448009 -2.659613 -0.510506 7.273845 4.508963 -4.585881 4.826882 7.822871 -1.306918 -8.696923 2.541559 1.049465 -72.193966 -4.527801 -3.281147 -0.610594 -1.883937 -17.961849 -13.921199 36.954776 23.404164 8.860699 -0.921592 -14.872938 52.062226 33.421970 46.767111 -42.468788 -27.974944 117.134111 42.642046 44.540254 -39.367581 -2.354480 14.525430 -4.692285 -0.002196 10.517969 0.000043 2.280476 -7.505895 -0.417385 -0.000000 0.902816 -0.000014 -11.037429 28.528090 -3.584922 -0.000560 -10.509297 -0.000137 -0.386618 -0.312562 9.429088 0.000011 -11.604828 0.000011
-0.003051 -0.003526 0.045831 3.212833 -15.087108 4.842835 -9.734351 17.991883 2.937798 4.449083 -2.679994 -0.509950 7.269022 4.512447 -4.598364 4.825908 7.830086 -1.307160 -8.704629 2.562030 1.047374 -72.188768 -4.511690 -3.294620 -0.615726 -1.900147 -17.958447 -13.911240 36.925642 23.374430 8.855591 -0.901351 -14.879873 52.046834 33.435791 46.772056 -42.511924 -28.013218 117.128168 42.698388 44.478561 -39.573218 -2.361744 14.528055 -4.697561 -0.002278 10.514689 0.000049 2.292210 -7.506841 -0.399708 -0.000001 0.889939 -0.000016 -11.041235 28.530924 -3.610628 -0.000546 -10.507648 -0.000134 -0.397339 -0.322364 9.456806 0.000014 -11.611614 0.000011
